<svg xmlns="http://www.w3.org/2000/svg" width="2167" height="725" viewBox="0 0 2167 725">
  <defs>
    <linearGradient id="metal" x1="0" y1="0" x2="0" y2="1">
      <stop offset="0" stop-color="#ffffff"/>
      <stop offset="0.48" stop-color="#f7f7f8"/>
      <stop offset="1" stop-color="#a7a7ad"/>
    </linearGradient>
    <linearGradient id="charcoal" x1="0" y1="0" x2="1" y2="1">
      <stop offset="0" stop-color="#202228"/>
      <stop offset="0.55" stop-color="#0d0e12"/>
      <stop offset="1" stop-color="#050507"/>
    </linearGradient>
    <linearGradient id="purple" x1="0" y1="0" x2="1" y2="1">
      <stop offset="0" stop-color="#d7c7ff"/>
      <stop offset="0.44" stop-color="#9b6dff"/>
      <stop offset="1" stop-color="#5b32c8"/>
    </linearGradient>
    <linearGradient id="softLine" x1="0" y1="0" x2="1" y2="0">
      <stop offset="0" stop-color="#9b6dff" stop-opacity="0"/>
      <stop offset="0.25" stop-color="#9b6dff" stop-opacity="0.58"/>
      <stop offset="0.5" stop-color="#ffffff" stop-opacity="0.28"/>
      <stop offset="0.75" stop-color="#9b6dff" stop-opacity="0.58"/>
      <stop offset="1" stop-color="#9b6dff" stop-opacity="0"/>
    </linearGradient>
    <filter id="shadow" x="-20%" y="-30%" width="140%" height="170%">
      <feDropShadow dx="0" dy="18" stdDeviation="15" flood-color="#000000" flood-opacity="0.70"/>
      <feDropShadow dx="0" dy="0" stdDeviation="6" flood-color="#9b6dff" flood-opacity="0.28"/>
    </filter>
    <filter id="purpleGlow" x="-60%" y="-60%" width="220%" height="220%">
      <feGaussianBlur stdDeviation="8" result="blur"/>
      <feColorMatrix in="blur" type="matrix" values="0.55 0 0 0 0.33  0 0.30 0 0 0.18  0 0 1 0 0.95  0 0 0 0.72 0"/>
      <feMerge>
        <feMergeNode/>
        <feMergeNode in="SourceGraphic"/>
      </feMerge>
    </filter>
    <filter id="whiteEdge" x="-15%" y="-25%" width="130%" height="150%">
      <feDropShadow dx="0" dy="5" stdDeviation="2" flood-color="#000000" flood-opacity="0.85"/>
      <feDropShadow dx="0" dy="0" stdDeviation="2" flood-color="#ffffff" flood-opacity="0.26"/>
    </filter>
  </defs>

  <rect width="2167" height="725" fill="#050507" opacity="0"/>

  <g opacity="0.94" filter="url(#shadow)">
    <path d="M168 356 H478 C505 356 518 342 539 326 L704 197 C733 174 767 178 793 206 L933 356 H1114" fill="none" stroke="#2b2e36" stroke-width="18" stroke-linecap="round" stroke-linejoin="round"/>
    <path d="M1054 356 H1322 C1352 356 1368 342 1391 322 L1510 218 C1535 196 1572 197 1597 221 L1700 319 C1724 342 1744 356 1776 356 H1990" fill="none" stroke="#2b2e36" stroke-width="18" stroke-linecap="round" stroke-linejoin="round"/>
    <path d="M168 356 H478 C505 356 518 342 539 326 L704 197 C733 174 767 178 793 206 L933 356 H1114" fill="none" stroke="#9b6dff" stroke-width="7" stroke-linecap="round" stroke-linejoin="round" opacity="0.9"/>
    <path d="M1054 356 H1322 C1352 356 1368 342 1391 322 L1510 218 C1535 196 1572 197 1597 221 L1700 319 C1724 342 1744 356 1776 356 H1990" fill="none" stroke="#9b6dff" stroke-width="7" stroke-linecap="round" stroke-linejoin="round" opacity="0.9"/>
    <path d="M294 512 H670 C712 512 727 489 758 464 L875 369" fill="none" stroke="#3d404a" stroke-width="16" stroke-linecap="round" stroke-linejoin="round"/>
    <path d="M1295 514 H1536 C1572 514 1594 496 1619 471 L1711 379" fill="none" stroke="#3d404a" stroke-width="16" stroke-linecap="round" stroke-linejoin="round"/>
    <path d="M294 512 H670 C712 512 727 489 758 464 L875 369" fill="none" stroke="#c9b6ff" stroke-width="6" stroke-linecap="round" stroke-linejoin="round" opacity="0.78"/>
    <path d="M1295 514 H1536 C1572 514 1594 496 1619 471 L1711 379" fill="none" stroke="#c9b6ff" stroke-width="6" stroke-linecap="round" stroke-linejoin="round" opacity="0.78"/>
  </g>

  <g filter="url(#purpleGlow)">
    <circle cx="166" cy="356" r="19" fill="url(#purple)"/>
    <circle cx="1116" cy="356" r="19" fill="url(#purple)"/>
    <circle cx="1292" cy="514" r="17" fill="url(#purple)"/>
    <circle cx="1988" cy="356" r="19" fill="url(#purple)"/>
    <circle cx="1535" cy="514" r="12" fill="#f7f7f8" opacity="0.72"/>
  </g>

  <g transform="translate(141 172) rotate(-8)" filter="url(#shadow)">
    <path d="M65 92 C90 56 124 50 168 65 C193 73 226 73 251 65 C296 50 330 56 354 92 C376 125 397 192 378 223 C364 246 335 244 312 220 L269 176 H151 L108 220 C85 244 56 246 42 223 C23 192 43 125 65 92 Z" fill="url(#charcoal)" stroke="#6c6c73" stroke-width="8" stroke-linejoin="round"/>
    <path d="M67 93 C91 60 124 56 167 70 C193 78 226 78 252 70 C295 56 328 60 352 93" fill="none" stroke="#c9b6ff" stroke-width="5" stroke-linecap="round" opacity="0.88"/>
    <circle cx="125" cy="139" r="24" fill="#121318" stroke="#c9b6ff" stroke-width="6"/>
    <path d="M104 139 H146 M125 118 V160" stroke="#f7f7f8" stroke-width="10" stroke-linecap="round"/>
    <circle cx="288" cy="121" r="13" fill="#d7c7ff"/>
    <circle cx="321" cy="146" r="13" fill="#9b6dff"/>
    <circle cx="254" cy="146" r="13" fill="#5b32c8"/>
    <circle cx="288" cy="171" r="13" fill="#f7f7f8" opacity="0.88"/>
    <rect x="184" y="124" width="50" height="15" rx="7.5" fill="#a7a7ad" opacity="0.42"/>
    <rect x="177" y="154" width="64" height="12" rx="6" fill="#a7a7ad" opacity="0.28"/>
  </g>

  <g transform="translate(1742 154)" filter="url(#shadow)">
    <rect x="0" y="0" width="314" height="294" rx="31" fill="url(#charcoal)" stroke="#6c6c73" stroke-width="7"/>
    <rect x="32" y="39" width="250" height="46" rx="12" fill="#17191e"/>
    <circle cx="59" cy="62" r="12" fill="#9b6dff"/>
    <circle cx="97" cy="62" r="12" fill="#c9b6ff"/>
    <circle cx="135" cy="62" r="12" fill="#5b32c8"/>
    <rect x="33" y="120" width="64" height="38" rx="9" fill="#9b6dff"/>
    <rect x="33" y="177" width="64" height="38" rx="9" fill="#f7f7f8" opacity="0.82"/>
    <rect x="33" y="234" width="64" height="38" rx="9" fill="#5b32c8"/>
    <rect x="120" y="129" width="126" height="17" rx="8" fill="#a7a7ad" opacity="0.55"/>
    <rect x="120" y="186" width="126" height="17" rx="8" fill="#a7a7ad" opacity="0.42"/>
    <rect x="120" y="243" width="126" height="17" rx="8" fill="#a7a7ad" opacity="0.35"/>
  </g>

  <g filter="url(#shadow)">
    <text x="568" y="268"
          font-family="Helvetica, Arial, sans-serif"
          font-size="156"
          font-weight="800"
          letter-spacing="-2"
          fill="url(#metal)"
          stroke="#071019"
          stroke-width="12"
          paint-order="stroke fill">Project</text>

    <text x="560" y="491"
          font-family="Helvetica, Arial, sans-serif"
          font-size="182"
          font-weight="900"
          letter-spacing="-4"
          fill="url(#metal)"
          stroke="#071019"
          stroke-width="15"
          paint-order="stroke fill">GazelleGames</text>
  </g>

  <g transform="translate(568 548)" opacity="0.95">
    <rect x="0" y="0" width="1012" height="5" rx="2.5" fill="url(#softLine)"/>
    <text x="0" y="54"
          font-family="Helvetica, Arial, sans-serif"
          font-size="34"
          font-weight="700"
          letter-spacing="8"
          fill="#a7a7ad"
          filter="url(#whiteEdge)">DARK WIDESCREEN THEME FOR GAZELLEGAMES</text>
  </g>
</svg>
